# xmcd
# 
# Track frame offsets:
#     150
#     12396
#     23488
#     36506
#     49476
#     63282
#     73959
#     86676
#     94780
#     105822
#     116723
#     129808
#     141542
#     151700
#     163801
# 
# Disc length: 2406
# 
# Revision: 9
# Processed by: cddbd v1.5.2PL0 Copyright (c) Steve Scherf et al.
# Submitted via: fre:ac v1.0.31
# 
DISCID=c809640f
DTITLE=Various Artist - Classic Country - 1965-1969 - CD 1
DYEAR=2000
DGENRE=Country
TTITLE0=Tammy Wynette - Stand by your man
TTITLE1=Roger Miller - King of the road
TTITLE2=Jim Reeves - Distant drums
TTITLE3=Bobby Gentry - I'll never fall in love again
TTITLE4=Charley Pride - All I have to offer you is me
TTITLE5=Waylon Jennings - Only Daddy that'll walk the Lane
TTITLE6=Eddy Arnold - Then you can tell me goodbye
TTITLE7=Sandy Posey - Born a woman
TTITLE8=Sonny James - I'll never find another you
TTITLE9=Porter Wagoner - Green green grass of home
TTITLE10=Leapy Lee - Little arrows
TTITLE11=Jack Greene - There goes my everything
TTITLE12=Slim Whitman - The twelfth of never
TTITLE13=Glen Campbell - Galveston
TTITLE14=Johnny Cash - A boy named Sue (Live)
EXTD=YEAR: 2000
EXTT0=
EXTT1=
EXTT2=
EXTT3=
EXTT4=
EXTT5=
EXTT6=
EXTT7=
EXTT8=
EXTT9=
EXTT10=
EXTT11=
EXTT12=
EXTT13=
EXTT14=
PLAYORDER=
